<svg width="20" height="18" viewBox="0 0 20 18" fill="none" xmlns="http://www.w3.org/2000/svg">
<path d="M9.10609 3.39252L10 5.17524L10.8939 3.39252C11.6112 1.96197 13.0586 1 14.7107 1C17.0585 1 19 2.95308 19 5.41056C19 6.61371 18.4842 7.9463 17.5966 9.32569C16.7163 10.6937 15.5252 12.0227 14.306 13.1979C13.0907 14.3694 11.8713 15.3653 10.9538 16.0692C10.5761 16.359 10.251 16.5983 10 16.7789C9.74904 16.5983 9.42388 16.359 9.04622 16.0692C8.12867 15.3653 6.90932 14.3694 5.694 13.1979C4.47483 12.0227 3.28374 10.6937 2.40343 9.32569C1.51576 7.9463 1 6.61371 1 5.41056C1 2.95308 2.94151 1 5.28933 1C6.94143 1 8.38876 1.96197 9.10609 3.39252Z" fill="#ECEBEB" stroke="#A90D0D" stroke-width="2"/>
</svg>
